<?xml version="1.0" encoding="UTF-8"?>
<svg version="1.1" xmlns="http://www.w3.org/2000/svg" width="1201" height="309">
<path d="M0 0 C3.59637535 3.11015211 6.1831234 6.14308753 6.875 10.9375 C6.91625 11.948125 6.9575 12.95875 7 14 C2.95001278 17.40198926 -1.63626649 20 -7 20 C-7 19.34 -7 18.68 -7 18 C-38.2179416 15.41049332 -86.33281293 44.67499817 -110.8359375 63.13671875 C-113.27449423 65.2363425 -114.62136936 67.09761971 -116 70 C-116 71.32 -116 72.64 -116 74 C-90.23820559 76.10778318 -62.60066966 66.20194921 -38.63354492 57.78540039 C-33.20337683 56.16596489 -28.3522186 56.01354188 -23.25 58.625 C-18.40962732 61.80324935 -14.39413672 66.28403944 -13 72 C-12.8125 75.375 -12.8125 75.375 -14 79 C-19.8272921 84.7227213 -27.20471183 88.6165212 -34.3125 92.5 C-35.39136475 93.09748047 -36.47022949 93.69496094 -37.58178711 94.31054688 C-45.69894169 98.78817365 -53.87859218 103.14586853 -62.0625 107.5 C-91.42835573 122.60475964 -91.42835573 122.60475964 -118 142 C-119.32 141.34 -120.64 140.68 -122 140 C-122.54311871 134.67743667 -121.87307861 131.76704314 -118.60546875 127.703125 C-113.35071397 122.12873793 -108.94587343 119.38444123 -101.19921875 118.91015625 C-100.11060547 118.45962891 -100.11060547 118.45962891 -99 118 C-98.30276888 116.29199004 -97.61111964 114.58110615 -96.96850586 112.85180664 C-95.12536099 109.32766904 -91.76665145 107.6732374 -88.4375 105.6875 C-87.68227051 105.21948975 -86.92704102 104.75147949 -86.14892578 104.26928711 C-75.94796977 98.01617061 -65.49004294 92.22462456 -54.78515625 86.8828125 C-53.73215332 86.35163818 -52.67915039 85.82046387 -51.59423828 85.27319336 C-49.52119479 84.23186177 -47.44025547 83.20607433 -45.35107422 82.19750977 C-44.40893066 81.72369873 -43.46678711 81.2498877 -42.49609375 80.76171875 C-41.65232178 80.34881592 -40.8085498 79.93591309 -39.93920898 79.51049805 C-37.74880646 78.10806347 -37.74880646 78.10806347 -37.21899414 75.32739258 C-37.11059204 74.17533325 -37.11059204 74.17533325 -37 73 C-48.90015187 74.82494342 -60.42132735 77.88538459 -71.99853516 81.13085938 C-82.70785046 84.08457345 -93.29646843 86.27884129 -104.4375 86.3125 C-105.73558594 86.32925781 -107.03367187 86.34601563 -108.37109375 86.36328125 C-113.61387468 85.83843881 -117.71517551 83.86755562 -121.375 80.0625 C-124.64736596 75.96771402 -124.86166627 72.11514106 -124.57421875 66.9921875 C-122.41827595 55.75781888 -111.59178026 48.68387698 -102.75512695 42.62182617 C-94.42377562 37.01639681 -85.90004943 31.86388297 -77.05712891 27.11083984 C-74.94888791 25.97239971 -72.85549479 24.80932816 -70.76171875 23.64453125 C-14.48816666 -7.24408333 -14.48816666 -7.24408333 0 0 Z " fill="#1B1A16" transform="translate(815,2)"/>
<path d="M0 0 C9.77840429 9.33393137 14.97356397 18.12818348 15.3046875 31.78515625 C15.36620424 40.20403393 13.3697951 45.26212476 7.8046875 51.72265625 C7.38155273 52.2213623 6.95841797 52.72006836 6.52246094 53.23388672 C1.08509662 59.58927314 -4.72406599 65.41835583 -11.1953125 70.72265625 C-12.32339559 71.68563716 -13.45094786 72.64924007 -14.578125 73.61328125 C-21.77950904 79.69644936 -29.16552172 85.23807843 -37.1328125 90.28515625 C-37.90085205 90.77330811 -38.6688916 91.26145996 -39.46020508 91.7644043 C-52.99555266 100.13800392 -52.99555266 100.13800392 -62.1953125 98.72265625 C-65.46592447 100.7577037 -67.05634626 102.5142069 -69.1953125 105.72265625 C-71.19314487 105.91916435 -73.19129293 106.11341128 -75.19140625 106.28515625 C-77.50049734 106.6003342 -77.50049734 106.6003342 -79.5703125 109.09765625 C-85.67569403 115.20303778 -94.20823765 115.06243879 -102.41015625 115.12109375 C-105.1953125 114.72265625 -105.1953125 114.72265625 -107.10546875 113.47265625 C-108.57150774 111.11858648 -108.31603029 110.02221968 -107.6953125 107.34765625 C-106.19942188 101.63353992 -103.02121899 98.93992724 -98.1953125 95.72265625 C-96.8753125 95.72265625 -95.5553125 95.72265625 -94.1953125 95.72265625 C-93.8653125 97.04265625 -93.5353125 98.36265625 -93.1953125 99.72265625 C-79.45524563 102.46027361 -65.13686483 92.61896907 -53.99169922 85.26953125 C-39.74895505 75.62312542 -26.21654462 65.06878654 -14.1953125 52.72265625 C-13.66550781 52.23796875 -13.13570312 51.75328125 -12.58984375 51.25390625 C-5.83673764 44.93311819 1.44117784 35.99284941 1.921875 26.37890625 C1.24211036 20.32680816 -0.18263368 16.31064026 -4.96875 12.19921875 C-29.01843998 -5.41337949 -67.07568098 -2.40254978 -94.8515625 1.80859375 C-114.33363502 4.4114101 -114.33363502 4.4114101 -130.1953125 14.72265625 C-130.97344902 16.75607512 -130.97344902 16.75607512 -131.3828125 18.91015625 C-131.6509375 20.16828125 -131.9190625 21.42640625 -132.1953125 22.72265625 C-136.9222657 23.10081251 -140.32681408 23.12588766 -144.6953125 21.09765625 C-147.1953125 18.72265625 -147.1953125 18.72265625 -148.5078125 15.84765625 C-148.1953125 12.72265625 -148.1953125 12.72265625 -145.7578125 9.84765625 C-113.79877705 -14.18453183 -32.86338213 -27.57421118 0 0 Z " fill="#1B1A16" transform="translate(148.1953125,16.27734375)"/>
<path d="M0 0 C6.05279041 0.00577802 12.10553722 0.00234616 18.15832615 -0.00357246 C22.90877099 -0.00720376 27.65920564 -0.0060291 32.4096508 -0.00344467 C34.64242496 -0.00278671 36.8752001 -0.0035633 39.1079731 -0.00592422 C51.65201205 -0.01631773 64.11064814 0.20085549 76.62280273 1.13037109 C76.62280273 1.46037109 76.62280273 1.79037109 76.62280273 2.13037109 C76.02103022 2.15245258 75.4192577 2.17453407 74.79924965 2.1972847 C-26.33338275 5.72761719 -26.33338275 5.72761719 -127.37719727 11.13037109 C-128.56953979 11.20709045 -129.76188232 11.28380981 -130.99035645 11.362854 C-213.65752356 16.73382047 -301.31409554 24.77600385 -380.37719727 51.13037109 C-383.07004686 51.30849733 -385.67161095 51.21764807 -388.37719727 51.13037109 C-389.37719727 50.13037109 -389.37719727 50.13037109 -389.75219727 47.75537109 C-389.62844727 46.88912109 -389.50469727 46.02287109 -389.37719727 45.13037109 C-386.00410098 42.7121824 -382.71695758 41.47396004 -378.73266602 40.40380859 C-377.60272217 40.09894531 -376.47277832 39.79408203 -375.30859375 39.47998047 C-374.07310791 39.15835938 -372.83762207 38.83673828 -371.56469727 38.50537109 C-370.91638947 38.33529541 -370.26808167 38.16521973 -369.60012817 37.98999023 C-285.46510309 15.97187765 -199.03815153 6.09525177 -112.31469727 2.00537109 C-111.513414 1.96666901 -110.71213074 1.92796692 -109.88656616 1.88809204 C-73.28061104 0.15292352 -36.63935529 -0.03530677 0 0 Z " fill="#EA671E" transform="translate(1102.377197265625,144.86962890625)"/>
<path d="M0 0 C3.7917375 1.57218384 4.79080761 3.38787875 6.5625 7.0625 C7.59350648 10.35093898 7.5065383 12.74361537 6.5625 16.0625 C4.48665516 19.52378592 2.12642434 22.66312735 -0.3203125 25.8671875 C-3.97761739 30.68785918 -7.20578205 35.76291384 -10.4375 40.875 C-11.03022705 41.812229 -11.6229541 42.74945801 -12.23364258 43.71508789 C-15.97454508 49.66467922 -19.65824332 55.64663744 -23.25 61.6875 C-23.66443359 62.37948486 -24.07886719 63.07146973 -24.50585938 63.78442383 C-26.30771219 66.85769552 -27.6846511 69.58584472 -28.4375 73.0625 C-25.47105017 71.39387197 -22.82198134 69.57356595 -20.1875 67.4375 C-15.37152578 63.72152757 -9.97723452 61.11826129 -4.51660156 58.48583984 C0.46909346 55.98620907 3.12589046 53.42693307 6.5625 49.0625 C10.0625 47.875 10.0625 47.875 13.5625 48.0625 C17.19912265 50.51326744 18.82036894 52.83122158 19.6875 57.0625 C20.0078125 59 20.0078125 59 19.5625 61.0625 C16.23730559 64.82552738 13.14245328 67.04397812 8.58984375 69.11328125 C7.44193359 69.64759766 6.29402344 70.18191406 5.11132812 70.73242188 C3.3237207 71.54549805 3.3237207 71.54549805 1.5 72.375 C-12.3613468 78.29825136 -12.3613468 78.29825136 -24.4375 87.0625 C-25.54232655 91.32455842 -25.8971022 93.16952599 -23.86328125 97.12109375 C-21.24981068 100.29008463 -18.55246718 103.24740134 -15.625 106.125 C-14.83367676 106.91487305 -14.83367676 106.91487305 -14.02636719 107.72070312 C-11.23362411 110.46378983 -8.47182304 112.90653334 -5.1875 115.0625 C-4.28 115.7225 -3.3725 116.3825 -2.4375 117.0625 C-2.4375 118.3825 -2.4375 119.7025 -2.4375 121.0625 C-3.85183206 121.2861337 -5.26917618 121.49076476 -6.6875 121.6875 C-7.47640625 121.80351563 -8.2653125 121.91953125 -9.078125 122.0390625 C-11.81373022 122.06623739 -13.17319706 121.57203529 -15.4375 120.0625 C-16.6875 117.4375 -16.6875 117.4375 -17.4375 115.0625 C-18.2625 115.206875 -19.0875 115.35125 -19.9375 115.5 C-25.23182877 114.8382089 -27.97045504 111.97936117 -31.4375 108.0625 C-33.13872246 105.53169266 -34.6606948 102.9772924 -36.11328125 100.296875 C-37.36512303 98.18462279 -38.6246649 96.69989945 -40.4375 95.0625 C-41.40130382 97.24772816 -42.35859439 99.43545386 -43.3125 101.625 C-43.58191406 102.23408203 -43.85132813 102.84316406 -44.12890625 103.47070312 C-48.02592062 112.01086094 -48.02592062 112.01086094 -47.4375 121.0625 C-47.1075 121.3925 -46.7775 121.7225 -46.4375 122.0625 C-45.9375 124.25 -45.9375 124.25 -46.4375 127.0625 C-48.4674464 129.54989911 -50.67048395 131.43450511 -53.4375 133.0625 C-56.49420079 133.13197047 -57.70118453 132.56214264 -60.1875 130.875 C-62.44490005 127.60176993 -62.58673228 124.10289559 -62.03271484 120.24047852 C-60.17939913 113.2556832 -57.91683933 106.63758941 -55.0625 100 C-54.60480225 98.92782227 -54.14710449 97.85564453 -53.67553711 96.75097656 C-42.3032929 70.63520564 -29.64863563 44.753147 -15.4375 20.0625 C-14.9724707 19.2463623 -14.50744141 18.43022461 -14.02832031 17.58935547 C-12.65266393 15.17936745 -11.26723652 12.77544292 -9.875 10.375 C-9.46870361 9.6722998 -9.06240723 8.96959961 -8.64379883 8.24560547 C-3.83583681 0.09835479 -3.83583681 0.09835479 0 0 Z " fill="#1B1A16" transform="translate(1050.4375,2.9375)"/>
<path d="M0 0 C2.5 2.1875 2.5 2.1875 4 5 C3.74867497 10.55347236 1.2812299 14.40672609 -1.5625 19 C-2.47036843 20.51152879 -3.37791583 22.02325044 -4.28515625 23.53515625 C-5.59256395 25.69041206 -6.90375661 27.84315749 -8.22216797 29.99169922 C-12.60802235 37.1660101 -16.03662207 43.53212695 -17 52 C-15.89140625 51.4225 -14.7828125 50.845 -13.640625 50.25 C-12.17730017 49.49957701 -10.71374645 48.74960026 -9.25 48 C-8.52039063 47.6184375 -7.79078125 47.236875 -7.0390625 46.84375 C-5.97558594 46.30234375 -5.97558594 46.30234375 -4.890625 45.75 C-4.24125977 45.41484375 -3.59189453 45.0796875 -2.92285156 44.734375 C-1 44 -1 44 3 44 C3.29105277 46.96669573 3.40382295 48.47141874 1.55859375 50.88671875 C-20.08148785 69.25886906 -20.08148785 69.25886906 -28.5625 68.8125 C-33.33357825 67.6847906 -33.33357825 67.6847906 -35 65 C-37.27497921 58.93338878 -34.35967688 53.6351279 -32 48 C-29.88562015 43.64530017 -27.61264688 39.38396521 -25.3125 35.125 C-24.13604858 32.94326381 -22.96523469 30.75847587 -21.80078125 28.5703125 C-21.28684814 27.61914551 -20.77291504 26.66797852 -20.2434082 25.68798828 C-19.04197582 23.09074294 -18.42565724 20.81873996 -18 18 C-22.97420711 18.416833 -25.8547192 20.98983402 -29.4375 24.1875 C-30.04150635 24.71851318 -30.6455127 25.24952637 -31.26782227 25.79663086 C-45.51590979 38.38043355 -45.51590979 38.38043355 -56.5703125 53.6953125 C-58.8498004 57.36989681 -60.86714507 59.62238169 -65 61 C-66.16285751 62.79493574 -66.16285751 62.79493574 -67.0625 64.9375 C-68.22451702 67.50887099 -68.97683978 68.97683978 -71 71 C-74.79877599 71.35173852 -77.14360153 71.52701444 -80.4375 69.5 C-80.953125 69.005 -81.46875 68.51 -82 68 C-81.43198865 63.15429796 -79.91270912 59.19588198 -77.7890625 54.85546875 C-77.30264282 53.83656303 -77.30264282 53.83656303 -76.80639648 52.79707336 C-76.1118121 51.34334995 -75.41398443 49.89117244 -74.7131958 48.44042969 C-72.8766782 44.6382233 -71.06292675 40.8252173 -69.25 37.01171875 C-68.88709869 36.24934906 -68.52419739 35.48697937 -68.15029907 34.70150757 C-64.33819719 26.66160793 -60.77012829 18.52354419 -57.27587891 10.34057617 C-56.86772949 9.39287354 -56.45958008 8.4451709 -56.0390625 7.46875 C-55.51626709 6.23801758 -55.51626709 6.23801758 -54.98291016 4.98242188 C-54 3 -54 3 -52 1 C-47.42047449 0.313869 -43.32156395 0.15042318 -39.375 2.6875 C-37.68368217 5.53198908 -37.19075695 6.76302779 -38 10 C-39.40093988 10.8884009 -40.80622659 11.77055101 -42.23046875 12.62109375 C-50.60049639 19.14343317 -54.73045389 32.54046017 -59 42 C-58.05898438 41.23429687 -57.11796875 40.46859375 -56.1484375 39.6796875 C-55.61911621 39.24897949 -55.08979492 38.81827148 -54.54443359 38.37451172 C-52.58813106 36.63344576 -51.025493 34.62434886 -49.390625 32.5859375 C-47.23696293 30.1297948 -44.76995576 28.08589695 -42.28515625 25.97265625 C-39.73490849 23.77116032 -37.27933273 21.48197761 -34.8125 19.1875 C-9.88808712 -3.4899131 -9.88808712 -3.4899131 0 0 Z " fill="#1B1A16" transform="translate(580,55)"/>
<path d="M0 0 C9.94382022 -0.33707865 9.94382022 -0.33707865 13 2 C14.79169944 7.15934393 15.28621374 12.56193892 15 18 C17.97 17.67 20.94 17.34 24 17 C25 21 25 21 24.0625 23.5 C21.84181698 26.191737 21.25021237 26.30227067 18.125 27.3125 C14.70095764 28.84053347 14.06687633 29.83667105 12.61328125 33.38671875 C11.98810859 35.46302212 11.42403366 37.55034691 10.86376953 39.64501953 C8.53497516 48.20590807 4.37459938 57.65341545 -3 63 C-5.32914823 63.36141955 -7.66253478 63.69699525 -10 64 C-12.64477242 66.37117528 -12.9846864 67.9064169 -13.5625 71.4375 C-15.45815456 76.13542651 -17.67170284 77.14716982 -22.2109375 79.109375 C-26.63570992 80.52232754 -30.44041729 81.05794239 -35 80 C-38.09268874 78.38966897 -40.49426313 76.40758588 -43 74 C-43.825 73.2575 -44.65 72.515 -45.5 71.75 C-49.03515108 65.26888968 -47.09555212 57.21565774 -45.23046875 50.39453125 C-40.75917022 38.05942514 -33.26168083 26.84392491 -26 16 C-25.01580078 14.4221875 -25.01580078 14.4221875 -24.01171875 12.8125 C-20.46702604 7.8568131 -15.58284985 4.74505284 -9.75 3.0625 C-6.99099462 2.99979533 -4.66354809 3.29494315 -2 4 C-1.34 2.68 -0.68 1.36 0 0 Z M-12 21 C-23.50026039 33.61414882 -35.06127298 49.47709567 -36 67 C-35.67 67.99 -35.34 68.98 -35 70 C-30.69731002 71.08471614 -30.69731002 71.08471614 -26.54296875 69.8828125 C-12.37076947 59.30654438 -0.24310165 45.6677778 4.76953125 28.33984375 C4.84558594 27.56769531 4.92164063 26.79554687 5 26 C3.3777546 24.29006566 1.70586575 22.62652316 0 21 C-1.3125 17.6875 -1.3125 17.6875 -2 15 C-6.09256219 15 -9.12556362 18.35850011 -12 21 Z " fill="#1B1A16" transform="translate(970,48)"/>
<path d="M0 0 C0.96873047 0.49306641 0.96873047 0.49306641 1.95703125 0.99609375 C5.08851869 2.5348935 8.21874236 2.39816694 11.66015625 2.55859375 C14.43546069 3.08214868 15.31060944 3.77379374 17 6 C19.07005335 12.21016006 18.74968909 18.15039059 16.0625 24.125 C9.85419814 35.23733863 -2.95622831 43.02339475 -14.6484375 47.34765625 C-20.23342144 48.89697904 -24.69047371 48.28464987 -30 46 C-30.84678051 47.86896555 -31.67686211 49.74550181 -32.5 51.625 C-32.9640625 52.66914062 -33.428125 53.71328125 -33.90625 54.7890625 C-35.03787805 58.11119915 -35.27924422 60.5194203 -35 64 C-34.67 64.66 -34.34 65.32 -34 66 C-20.78879553 65.77222061 -9.44249931 57.37299065 1 50 C1.75925781 49.46632812 2.51851563 48.93265625 3.30078125 48.3828125 C4.87494855 47.26606857 6.43909333 46.13520485 8 45 C9.32 45.66 10.64 46.32 12 47 C12.07753911 50.72187705 11.87120016 52.92567028 9.4921875 55.859375 C-0.45209874 65.00963078 -13.86909801 75.2074234 -27 79 C-31.49601786 78.77999411 -33.8380488 77.77953021 -37.0625 74.6875 C-38.07183594 73.74390625 -38.07183594 73.74390625 -39.1015625 72.78125 C-39.72804688 72.1934375 -40.35453125 71.605625 -41 71 C-42.4540625 69.8553125 -42.4540625 69.8553125 -43.9375 68.6875 C-46.40657335 66.66734908 -46.91309711 65.75977958 -47.2734375 62.609375 C-47.51982783 55.67253963 -46.62944524 53.30692503 -42 48 C-41.64340829 45.76257238 -41.64340829 45.76257238 -41.625 43.3125 C-41.23483844 36.60972442 -37.89424777 32.28656504 -34 27 C-33.61602051 26.47470703 -33.23204102 25.94941406 -32.83642578 25.40820312 C-12.69827275 -1.9855481 -12.69827275 -1.9855481 0 0 Z M-13.75 23.3125 C-18.43805357 28.1687047 -22.38277237 33.30873059 -26 39 C-25.67 39.66 -25.34 40.32 -25 41 C-13.04779177 40.54897327 -4.07029485 33.30985833 4 25 C6.63610958 22.03693109 7.90917878 19.78711723 8.375 15.75 C8.26339699 12.86000815 8.26339699 12.86000815 6 11 C-1.57748987 11 -8.61471098 18.31906979 -13.75 23.3125 Z " fill="#1B1A16" transform="translate(344,50)"/>
<path d="M0 0 C0.66 -0.00515625 1.32 -0.0103125 2 -0.015625 C4 0.25 4 0.25 5.93359375 1.23828125 C9.07866287 2.77811661 12.20573273 2.64756047 15.66015625 2.80859375 C18.46503373 3.33772757 19.31935329 3.97133176 21 6.25 C23.37308158 12.1190359 23.36449823 17.42586751 21 23.25 C15.42576103 34.16621798 2.1523408 43.07736359 -9.1015625 47.45703125 C-11.75074086 48.18180646 -13.8933051 48.51930526 -16.625 48.5 C-17.35976562 48.50515625 -18.09453125 48.5103125 -18.8515625 48.515625 C-21.26030725 48.21781656 -22.90376423 47.44513895 -25 46.25 C-28.32818476 52.2431888 -30.87616818 57.3154182 -31 64.25 C-30.34 64.91 -29.68 65.57 -29 66.25 C-23.23916281 65.98591045 -18.74415937 64.60621544 -13.625 61.9375 C-12.95380127 61.5979126 -12.28260254 61.2583252 -11.59106445 60.90844727 C-5.00729878 57.46650386 1.10217232 53.33003214 7.14794922 49.02416992 C7.86869629 48.51990479 8.58944336 48.01563965 9.33203125 47.49609375 C9.96858643 47.03904053 10.6051416 46.5819873 11.26098633 46.11108398 C13 45.25 13 45.25 16 46.25 C16.4375 49.3125 16.4375 49.3125 16 53.25 C11.97785326 58.57468705 6.24392825 62.54029549 0.8125 66.3125 C-0.29907471 67.08847534 -0.29907471 67.08847534 -1.43310547 67.88012695 C-18.50846596 79.59659323 -18.50846596 79.59659323 -27 79.25 C-29.54341462 77.63146342 -31.36583337 75.91173909 -33.4375 73.75 C-35.13064 72.02472233 -35.13064 72.02472233 -38.0625 70.3125 C-42.10425844 67.4746696 -42.10425844 67.4746696 -43 64.25 C-43.31097017 59.35221987 -43.37746972 55.64831898 -41 51.25 C-40.29875 50.46625 -39.5975 49.6825 -38.875 48.875 C-36.66519775 46.35424295 -36.66519775 46.35424295 -37.15234375 43.0625 C-36.95738482 38.18352775 -35.3360473 35.61108825 -32.6875 31.625 C-32.24035645 30.93277344 -31.79321289 30.24054688 -31.33251953 29.52734375 C-11.76073381 -0.09188073 -11.76073381 -0.09188073 0 0 Z M-9.48828125 23.671875 C-13.80263218 28.10029119 -17.87594035 32.90135288 -21 38.25 C-20.67 39.24 -20.34 40.23 -20 41.25 C-8.72287614 40.5145354 1.22246737 33.5575815 8.703125 25.390625 C11.41779024 21.8646805 13 18.73079113 13 14.25 C11.87359395 12.28959519 11.87359395 12.28959519 10 11.25 C2.68308515 11.25 -4.37733416 18.95407769 -9.48828125 23.671875 Z " fill="#1B1A16" transform="translate(1106,49.75)"/>
<path d="M0 0 C0.76183594 -0.00515625 1.52367187 -0.0103125 2.30859375 -0.015625 C4.5625 0.25 4.5625 0.25 6.53515625 1.24609375 C8.98637033 2.4598934 10.84186279 2.48370106 13.5625 2.5625 C16.95463613 2.88270164 18.32728698 3.08759101 21.1875 5.0625 C23.60989602 10.67805441 23.43592572 16.53958248 22.04296875 22.45703125 C17.34294296 33.82507393 4.09628789 41.10295155 -6.4375 46.25 C-13.25886098 48.84380146 -18.62212731 49.22655792 -25.4375 46.25 C-30.02629844 55.96073227 -30.02629844 55.96073227 -29.4375 66.25 C-15.68951858 66.25 -3.5219779 57.02621711 7.06640625 49.11206055 C7.741875 48.61101807 8.41734375 48.10997559 9.11328125 47.59375 C9.70794189 47.14193359 10.30260254 46.69011719 10.9152832 46.22460938 C12.5625 45.25 12.5625 45.25 15.5625 45.25 C16.4375 48.3125 16.4375 48.3125 16.5625 52.25 C13.40649242 57.40230819 8.47535236 61.21467864 3.625 64.6875 C2.98111328 65.15269043 2.33722656 65.61788086 1.67382812 66.09716797 C-2.8752866 69.31044905 -7.54739852 72.21064422 -12.4375 74.875 C-13.33456665 75.37084595 -13.33456665 75.37084595 -14.24975586 75.87670898 C-18.29538908 77.98558489 -21.86412162 79.17078444 -26.4375 79.25 C-29.1328125 77.73828125 -29.1328125 77.73828125 -31.5625 75.5625 C-32.36945313 74.85738281 -33.17640625 74.15226562 -34.0078125 73.42578125 C-34.80960937 72.70777344 -35.61140625 71.98976563 -36.4375 71.25 C-37.34242188 70.54230469 -38.24734375 69.83460937 -39.1796875 69.10546875 C-41.4375 67.25 -41.4375 67.25 -42.4375 65.25 C-42.95871865 59.58675885 -43.17430823 54.84914859 -39.4375 50.25 C-38.7775 49.59 -38.1175 48.93 -37.4375 48.25 C-37.375625 46.97125 -37.31375 45.6925 -37.25 44.375 C-35.70057385 28.90533255 -18.60365692 12.15936004 -7.4375 2.25 C-4.32763793 0.17675862 -3.54641613 -0.02392186 0 0 Z M-3.4375 18.25 C-10.04684131 24.00559475 -16.16495232 30.53960766 -20.4375 38.25 C-20.4375 39.24 -20.4375 40.23 -20.4375 41.25 C-8.46919713 40.58509428 1.10029228 33.90099132 9.30078125 25.4609375 C12.91941878 20.99625232 13.04210018 17.71744204 12.5625 12.25 C5.85768982 10.16753651 1.75089692 14.29428262 -3.4375 18.25 Z " fill="#1B1A16" transform="translate(475.4375,49.75)"/>
<path d="M0 0 C2.41512932 1.30766261 4.56661869 2.79882328 6.78125 4.421875 C8.80584156 5.86190139 10.77085726 6.92197195 13 8 C16 10 16 10 17.25 12.9375 C17 16 17 16 14.75 18.875 C12 21 12 21 9 21 C8.01 17.04 8.01 17.04 7 13 C-2.42675518 13.48342334 -9.40641592 20.85886437 -15.6328125 27.26953125 C-20.30810589 32.66232016 -23.81807911 38.63615821 -27 45 C-19.08 44.505 -19.08 44.505 -11 44 C-11.33 45.65 -11.66 47.3 -12 49 C-17.80077424 52.75344216 -23.79326586 53.99983712 -30.53515625 55.2890625 C-39.71270083 59.82092781 -43.77516043 72.05762637 -47.9375 80.875 C-48.23959381 81.50840302 -48.54168762 82.14180603 -48.85293579 82.79440308 C-61.50945591 109.32918231 -61.50945591 109.32918231 -67 138 C-68.98 137.67 -70.96 137.34 -73 137 C-75.17663532 131.83049112 -75.8510889 126.54580508 -75 121 C-73.60546875 118.6953125 -73.60546875 118.6953125 -72 117 C-71.34 117 -70.68 117 -70 117 C-70.12149414 116.34298096 -70.24298828 115.68596191 -70.36816406 115.0090332 C-71.52002543 106.97925763 -69.9544473 101.53272873 -66.75 94.1875 C-66.30414551 93.11959229 -65.85829102 92.05168457 -65.39892578 90.95141602 C-60.77031519 80.05787415 -55.49542157 69.47850464 -50 59 C-50.94875 58.566875 -51.8975 58.13375 -52.875 57.6875 C-56 56 -56 56 -58 53 C-57.625 50.3125 -57.625 50.3125 -57 48 C-56.16855469 47.89042969 -55.33710938 47.78085937 -54.48046875 47.66796875 C-53.39378906 47.50941406 -52.30710938 47.35085937 -51.1875 47.1875 C-50.10855469 47.03667969 -49.02960938 46.88585938 -47.91796875 46.73046875 C-44.24544235 45.81110806 -42.90546202 44.37635637 -40.85595703 41.26098633 C-40.49356934 40.62443115 -40.13118164 39.98787598 -39.7578125 39.33203125 C-15.82732456 -1.75859162 -15.82732456 -1.75859162 0 0 Z " fill="#EA671E" transform="translate(271,10)"/>
<path d="M0 0 C3.77593103 1.16447508 6.69393934 3.469923 9.796875 5.859375 C11.74613956 7.35705993 13.62616283 8.53686944 15.765625 9.72265625 C18.140625 11.66015625 18.140625 11.66015625 18.765625 14.66015625 C18.0164819 18.25604315 17.1477537 19.57187243 14.140625 21.66015625 C12.015625 21.78515625 12.015625 21.78515625 10.140625 20.66015625 C9.43681343 18.67292357 8.7694439 16.67237672 8.140625 14.66015625 C5.31660038 13.37661292 5.31660038 13.37661292 3.23046875 14.33984375 C-10.15709509 21.77467957 -18.37019796 32.55409643 -25.859375 45.66015625 C-17.444375 45.16515625 -17.444375 45.16515625 -8.859375 44.66015625 C-9.189375 46.31015625 -9.519375 47.96015625 -9.859375 49.66015625 C-12.1953125 51.13671875 -12.1953125 51.13671875 -15.234375 52.28515625 C-16.31847656 52.70796875 -17.40257812 53.13078125 -18.51953125 53.56640625 C-21.57796157 54.56799747 -24.51630942 55.18993167 -27.671875 55.78515625 C-31.9857849 56.94825036 -33.87143875 58.25552585 -36.359375 61.97265625 C-37.57555294 64.18731917 -38.72565325 66.40449313 -39.859375 68.66015625 C-40.69797633 70.24024335 -41.53792688 71.8196148 -42.37890625 73.3984375 C-58.85406711 104.02134343 -58.85406711 104.02134343 -64.859375 137.66015625 C-66.509375 137.99015625 -68.159375 138.32015625 -69.859375 138.66015625 C-72.80252935 134.55379236 -73.29154936 131.55191363 -73.296875 126.53515625 C-73.31621094 125.31570312 -73.33554688 124.09625 -73.35546875 122.83984375 C-72.859375 119.66015625 -72.859375 119.66015625 -70.83203125 117.73046875 C-70.18105469 117.37726563 -69.53007812 117.0240625 -68.859375 116.66015625 C-69.230625 115.32984375 -69.230625 115.32984375 -69.609375 113.97265625 C-71.03161875 103.78923838 -64.06262785 92.03402148 -59.984375 83.03515625 C-59.48035156 81.89820312 -58.97632813 80.76125 -58.45703125 79.58984375 C-55.24278577 72.42150089 -51.73255229 65.49466802 -47.859375 58.66015625 C-48.64699219 58.51964844 -49.43460937 58.37914062 -50.24609375 58.234375 C-53.20138312 57.58500648 -54.20723903 57.18183747 -55.859375 54.66015625 C-55.90704025 52.66072432 -55.91077885 50.65949555 -55.859375 48.66015625 C-54.99054688 48.62019531 -54.12171875 48.58023438 -53.2265625 48.5390625 C-46.54758123 48.09067696 -46.54758123 48.09067696 -40.90625 44.91015625 C-39.37830449 42.55947084 -38.11154806 40.1682514 -36.859375 37.66015625 C-35.79770466 35.89692989 -34.71320996 34.14729744 -33.609375 32.41015625 C-33.02800781 31.49234375 -32.44664062 30.57453125 -31.84765625 29.62890625 C-28.13622147 24.08727476 -24.01116676 18.87580148 -19.859375 13.66015625 C-19.30121094 12.94472656 -18.74304688 12.22929687 -18.16796875 11.4921875 C-13.60664097 5.86199272 -7.87415016 -0.60451153 0 0 Z " fill="#E9671E" transform="translate(317.859375,9.33984375)"/>
<path d="M0 0 C4.09153613 0.53038431 5.8318239 1.89570755 8.95703125 4.44140625 C11.08579145 7.43809072 11.22331535 9.78204074 11.375 13.4375 C10.12553996 16.01592607 8.97692524 17.97161137 7.31640625 20.24609375 C6.89326645 20.85767838 6.47012665 21.469263 6.03416443 22.09938049 C4.68665596 24.03798229 3.31292941 25.95613759 1.9375 27.875 C1.01577766 29.1907979 0.09583491 30.50784431 -0.82226562 31.82617188 C-3.06949837 35.04476724 -5.3404292 38.24531222 -7.625 41.4375 C-3.89048292 43.30475854 0.94249911 42.42503987 5.078125 42.31054688 C12.10393174 42.20722619 12.10393174 42.20722619 15.375 44.4375 C14.63867188 46.3671875 14.63867188 46.3671875 13.375 48.4375 C11.47070312 49.1953125 11.47070312 49.1953125 9.15625 49.5625 C8.31078613 49.70905029 7.46532227 49.85560059 6.59423828 50.0065918 C5.69688965 50.1487915 4.79954102 50.29099121 3.875 50.4375 C-8.23109359 51.96635195 -8.23109359 51.96635195 -18.12939453 58.21020508 C-22.14294198 64.38833843 -25.46955358 70.78405668 -28.625 77.4375 C-29.40774292 79.08310913 -29.40774292 79.08310913 -30.20629883 80.76196289 C-36.6599304 94.53300275 -41.67873506 107.06927418 -41.625 122.4375 C-43.4375 123.0625 -43.4375 123.0625 -45.625 123.4375 C-48.625 121.4375 -48.625 121.4375 -49.625 118.4375 C-49.7440686 116.64870198 -49.80022113 114.8552144 -49.8125 113.0625 C-49.82667969 112.12664062 -49.84085938 111.19078125 -49.85546875 110.2265625 C-49.61168108 107.27631846 -48.85612508 105.11385888 -47.625 102.4375 C-48.285 102.1075 -48.945 101.7775 -49.625 101.4375 C-49.28265073 94.29975214 -47.86773897 88.55889927 -44.9375 82.0625 C-44.58171875 81.24612061 -44.2259375 80.42974121 -43.859375 79.58862305 C-41.00023696 73.0947161 -37.9331365 66.71544087 -34.625 60.4375 C-36.11 60.9325 -36.11 60.9325 -37.625 61.4375 C-40.9375 61.9375 -40.9375 61.9375 -44.625 61.4375 C-47.09654288 59.42464958 -49.01613123 57.18966745 -50.625 54.4375 C-50.625 53.4475 -50.625 52.4575 -50.625 51.4375 C-47.22952426 50.62350073 -43.83355803 49.8115662 -40.4375 49 C-39.47779297 48.76990234 -38.51808594 48.53980469 -37.52929688 48.30273438 C-36.59794922 48.08037109 -35.66660156 47.85800781 -34.70703125 47.62890625 C-33.85343018 47.42467041 -32.9998291 47.22043457 -32.12036133 47.01000977 C-30.38348595 46.61151913 -28.63090152 46.27823624 -26.87133789 45.99633789 C-25.75940063 45.71971313 -25.75940063 45.71971313 -24.625 45.4375 C-23.51028331 43.22277362 -23.51028331 43.22277362 -22.625 40.4375 C-21.11751282 38.11182275 -19.58319101 35.8347467 -18 33.5625 C-7.59095054 18.7045483 -7.59095054 18.7045483 -3.625 1.4375 C-2.625 0.4375 -2.625 0.4375 0 0 Z " fill="#1B1A16" transform="translate(859.625,11.5625)"/>
<path d="M0 0 C5.2688427 0.41324256 8.22944438 1.22944438 12 5 C13.64810722 7.3223329 14.05704181 8.39082015 13.79125977 11.22924805 C12.79153091 14.72999559 11.0046203 17.4296958 8.96484375 20.39453125 C8.56672989 20.98674973 8.16861603 21.5789682 7.75843811 22.18913269 C6.49232156 24.06880599 5.21514901 25.94065159 3.9375 27.8125 C3.07412749 29.08999343 2.21148898 30.36798326 1.34960938 31.64648438 C-0.7584712 34.77013473 -2.8764963 37.88681622 -5 41 C-1.39385182 42.80307409 3.07433517 42.03221225 7.05859375 41.9609375 C10.52181346 41.92266988 13.69193859 41.89153963 17 43 C16.67 44.65 16.34 46.3 16 48 C15.44650879 48.10022461 14.89301758 48.20044922 14.32275391 48.30371094 C0.67876133 50.66294644 0.67876133 50.66294644 -12.3203125 55.265625 C-14 56 -14 56 -16 56 C-16.2475 56.67546875 -16.495 57.3509375 -16.75 58.046875 C-17.95190616 60.8863783 -19.36411379 63.52710227 -20.86889648 66.21533203 C-25.3522076 74.2800665 -29.02523763 82.55425876 -32.4375 91.125 C-33.07461914 92.72456543 -33.07461914 92.72456543 -33.72460938 94.35644531 C-37.9667415 105.06556706 -37.9667415 105.06556706 -39.125 116.4375 C-39.09792969 118.01337891 -39.09792969 118.01337891 -39.0703125 119.62109375 C-39.04710937 120.40613281 -39.02390625 121.19117188 -39 122 C-41.475 122.495 -41.475 122.495 -44 123 C-47.23950422 119.76049578 -47.64141063 116.56621973 -48.015625 112.18359375 C-47.99589485 109.42630477 -47.22499891 107.44999782 -46 105 C-46 104.01 -46 103.02 -46 102 C-46.33 101.67 -46.66 101.34 -47 101 C-47.37451912 95.68985392 -46.44988011 91.50401689 -44.5 86.625 C-44.10820557 85.61083008 -44.10820557 85.61083008 -43.70849609 84.57617188 C-40.53545008 76.53950746 -36.78508729 68.76231099 -33 61 C-33.61488281 61.02537842 -34.22976563 61.05075684 -34.86328125 61.0769043 C-35.67152344 61.09664307 -36.47976563 61.11638184 -37.3125 61.13671875 C-38.11300781 61.16209717 -38.91351562 61.18747559 -39.73828125 61.21362305 C-42 61 -42 61 -45 58.8125 C-47.01372859 55.98069417 -47.45985314 54.34778524 -48 51 C-47.39003174 50.86424561 -46.78006348 50.72849121 -46.15161133 50.58862305 C-43.36976287 49.96406172 -40.59119836 49.32592378 -37.8125 48.6875 C-36.37293945 48.36749023 -36.37293945 48.36749023 -34.90429688 48.04101562 C-26.93709134 46.19394721 -22.53411297 44.38897363 -18.05419922 37.40234375 C-17.60318848 36.67144531 -17.15217773 35.94054688 -16.6875 35.1875 C-16.21328613 34.43210938 -15.73907227 33.67671875 -15.25048828 32.8984375 C-13.82095098 30.60655553 -12.41032023 28.3037403 -11 26 C-10.58153809 25.33307129 -10.16307617 24.66614258 -9.73193359 23.97900391 C-5.36825685 17.01683383 -2.27387087 11.35306154 -2 3 C-1.34 2.01 -0.68 1.02 0 0 Z " fill="#1B1A16" transform="translate(646,12)"/>
<path d="M0 0 C3.59214375 2.52420912 5.66471769 5.56733606 7.3125 9.625 C7.69045825 12.68173732 7.6311555 15.56590718 7.3125 18.625 C4.5 19.25 4.5 19.25 1.3125 19.625 C0.3225 18.965 -0.6675 18.305 -1.6875 17.625 C-13.4220897 16.15817629 -26.41981144 24.02581336 -35.51953125 30.703125 C-37.7927489 32.71830173 -38.36942942 33.65634122 -38.6875 36.625 C-33.3560838 39.39819633 -28.09845524 38.68272974 -22.28125 38.37109375 C-18.2613651 38.25719701 -16.23182441 38.29612247 -12.70703125 40.42578125 C-10.6875 42.625 -10.6875 42.625 -9.375 45.9375 C-9.73331295 50.1655928 -10.21820748 50.60595726 -13.25 53.3125 C-15.7848255 55.30573406 -18.32841682 57.02854022 -21.0625 58.75 C-23.83756332 60.36621277 -23.83756332 60.36621277 -24.58203125 62.9765625 C-28.1665284 71.56415637 -40.72027882 79.09541233 -48.6875 83.625 C-54.05876103 84.95020981 -54.05876103 84.95020981 -56.5 83.6875 C-58.3450412 80.48295476 -58.7733834 77.26073046 -58.6875 73.625 C-56.82240482 68.02971446 -51.46518229 65.56896915 -46.6875 62.625 C-36.13784269 57.02668704 -36.13784269 57.02668704 -28.8125 48.3125 C-28.77125 47.755625 -28.73 47.19875 -28.6875 46.625 C-32.64160973 44.64794514 -37.06956551 45.48406757 -41.25 46.4375 C-44.6875 46.625 -44.6875 46.625 -48 44.4375 C-51.63148067 40.63711325 -52.44951378 39.05291732 -53.3125 33.875 C-53.15480611 30.30060506 -52.22025795 28.50164504 -49.8125 25.875 C-40.44478762 17.46722987 -29.2619386 10.66924781 -18.0625 5 C-17.12374023 4.52240234 -17.12374023 4.52240234 -16.16601562 4.03515625 C-11.19822568 1.62813743 -5.58727988 -0.77962045 0 0 Z " fill="#1B1A16" transform="translate(1193.6875,45.375)"/>
<path d="M0 0 C2.35537266 4.71074531 1.50510659 10.95212218 0.28125 15.9140625 C-1.50888102 20.92354205 -1.50888102 20.92354205 -3 23 C-5.64453125 23.7734375 -5.64453125 23.7734375 -8 24 C-8.66 22.35 -9.32 20.7 -10 19 C-24.40003998 20.64870023 -37.68988194 37.21967622 -46.2578125 47.984375 C-51.09319255 54.32555504 -55.23909796 60.70467913 -58.48828125 68.0234375 C-60 70 -60 70 -63.0234375 70.83984375 C-66.14818155 71.00797302 -67.46933853 70.78083585 -70 69 C-71.57991444 65.84017111 -71.34420735 63.49944139 -71 60 C-69.80216631 58.08752655 -68.50487955 56.44986617 -66.99609375 54.7734375 C-65.72400703 52.99569982 -65.72400703 52.99569982 -66.60498047 50.80297852 C-67.1471722 46.9556959 -65.95898504 44.88064578 -64.32421875 41.37890625 C-64.03899857 40.75652573 -63.75377838 40.1341452 -63.45991516 39.49290466 C-62.54838921 37.50997654 -61.61881004 35.53620261 -60.6875 33.5625 C-59.77058636 31.59085811 -58.85755062 29.61749647 -57.94721985 27.64280701 C-57.11708818 25.84666226 -56.27695093 24.05515183 -55.4362793 22.26391602 C-53.24788907 17.29084293 -51.73044983 13.1453425 -51.9375 7.6875 C-51.99119129 6.12578379 -52.02059797 4.56250312 -52 3 C-50.285532 1.285532 -48.08657934 1.78748523 -45.75 1.75 C-38.27164551 1.83740934 -38.27164551 1.83740934 -35 5 C-33.93973038 8.10048539 -33.86214197 9.61199634 -34.96875 12.7265625 C-38.65843506 19.71060923 -42.62365759 26.42253863 -47 33 C-43.58090716 31.53241573 -41.44113486 29.63957772 -38.875 26.96484375 C-38.0914917 26.15917969 -37.3079834 25.35351562 -36.50073242 24.5234375 C-35.67549072 23.67007813 -34.85024902 22.81671875 -34 21.9375 C-11.61765334 -0.82983238 -11.61765334 -0.82983238 0 0 Z " fill="#1B1A16" transform="translate(928,54)"/>
<path d="M0 0 C1.74610797 1.74610797 1.25498383 4.06117384 1.3125 6.4375 C1.25636968 12.30311882 0.55051916 18.1472847 -3 23 C-5.64453125 23.76953125 -5.64453125 23.76953125 -8 24 C-8.495 21.03 -8.495 21.03 -9 18 C-19.09636123 21.30426368 -26.55791333 27.02336461 -33.9375 34.5625 C-34.6284375 35.26358887 -35.319375 35.96467773 -36.03125 36.68701172 C-45.05596676 45.98373512 -52.23285383 55.68015769 -58.015625 67.296875 C-60 70 -60 70 -63.08984375 70.94140625 C-66.13298687 71.00267759 -67.53194473 70.73677964 -70 69 C-71.57991444 65.84017111 -71.34420735 63.49944139 -71 60 C-69.83288883 58.15139384 -68.57172397 56.57809943 -67.09375 54.96875 C-65.72828833 52.90525572 -65.72828833 52.90525572 -66.09130859 49.77563477 C-65.99233345 45.68298602 -65.15718056 43.3113769 -63.4453125 39.62109375 C-62.91292969 38.45255859 -62.38054687 37.28402344 -61.83203125 36.08007812 C-61.26361181 34.86560864 -60.69459642 33.65141792 -60.125 32.4375 C-59.01856822 30.04256941 -57.91947268 27.64438181 -56.8203125 25.24609375 C-56.32805176 24.19091553 -55.83579102 23.1357373 -55.32861328 22.04858398 C-53.19540975 17.15381874 -51.73401736 13.0513023 -51.9375 7.6875 C-51.99119129 6.12578379 -52.02059797 4.56250312 -52 3 C-50.285532 1.285532 -48.08657934 1.78748523 -45.75 1.75 C-40.79633414 1.78216666 -37.6012129 2.3987871 -34 6 C-34.35575019 11.67065801 -35.99747988 15.45867214 -38.875 20.1875 C-39.22691406 20.79013672 -39.57882812 21.39277344 -39.94140625 22.01367188 C-41.41912058 24.51589819 -42.94013609 26.92096308 -44.6953125 29.23828125 C-46.198127 31.07692346 -46.198127 31.07692346 -47 34 C-42.44509208 30.23724998 -38.21006178 26.23200734 -34.08837891 22.00561523 C-11.54497044 -1.07395074 -11.54497044 -1.07395074 0 0 Z " fill="#1B1A16" transform="translate(438,54)"/>
<path d="M0 0 C3.96968281 3.51858249 6.6806828 6.31632751 7.6875 11.625 C7.58165391 15.77567876 5.9877938 17.47384382 3.0625 20.3125 C2.23492187 21.06917969 1.40734375 21.82585938 0.5546875 22.60546875 C-3.77763556 26.66619357 -7.3096476 31.36188454 -11 36 C-11.92455214 37.1351168 -12.85038959 38.26918763 -13.77734375 39.40234375 C-23.60228838 51.46216105 -33.08386465 63.85246272 -41.125 77.1875 C-41.47908936 77.77466797 -41.83317871 78.36183594 -42.19799805 78.96679688 C-45.56809265 84.71534503 -47.98675417 90.6505324 -50 97 C-51.65614657 97.38218767 -53.32457024 97.71395102 -55 98 C-56.56662231 96.43337769 -56.28356434 94.93038879 -56.375 92.75 C-55.95200261 69.61529669 -34.66592796 43.48200834 -22.06640625 25.296875 C-21.42743408 24.36617187 -20.78846191 23.43546875 -20.13012695 22.4765625 C-18.91606876 20.71593376 -17.68765874 18.9650764 -16.44213867 17.2265625 C-12.96540043 12.18789948 -11.22937966 8.16528186 -10.60839844 2.04003906 C-10 0 -10 0 -8.12988281 -1.31738281 C-4.84213541 -2.37109003 -3.07575214 -1.44372039 0 0 Z " fill="#1B1A16" transform="translate(82,32)"/>
<path d="M0 0 C3 1.6875 3 1.6875 5 4 C5.37109375 6.40625 5.37109375 6.40625 5 9 C3.34765625 10.89453125 3.34765625 10.89453125 1.0625 12.8125 C-5.36664391 18.90910198 -9.0309519 26.18703809 -13 34 C-13.36544922 34.70785645 -13.73089844 35.41571289 -14.10742188 36.14501953 C-18.63042699 44.97939182 -22.04292665 53.54648506 -24.30859375 63.21875 C-25 66 -25 66 -26 67 C-29.86621922 67.53947245 -32.29398936 67.17761856 -35.4375 64.9375 C-38 62 -38 62 -38.125 58.375 C-37 55 -37 55 -34.9375 53.5 C-34.298125 53.005 -33.65875 52.51 -33 52 C-33.04447266 50.47632812 -33.04447266 50.47632812 -33.08984375 48.921875 C-32.98035427 44.14242127 -31.63878806 41.01385175 -29.625 36.75 C-29.27139404 35.98002686 -28.91778809 35.21005371 -28.5534668 34.41674805 C-25.7856484 28.47543621 -22.83819955 22.62614107 -19.8125 16.8125 C-19.40918457 16.03551758 -19.00586914 15.25853516 -18.59033203 14.45800781 C-10.16621645 -1.39955561 -10.16621645 -1.39955561 0 0 Z " fill="#1B1A16" transform="translate(194,57)"/>
<path d="M0 0 C1.67397105 0.29446527 3.33886251 0.64012345 5 1 C6.29550781 1.19078125 7.59101562 1.3815625 8.92578125 1.578125 C18.06794164 2.94395672 25.51362765 4.09303024 32 11.1875 C34.10168669 17.09849381 33.82493473 22.88806341 31.4375 28.6875 C24.05178812 41.93156691 9.37713264 54.16086755 -5 59 C-7.23828125 59.1953125 -7.23828125 59.1953125 -9.3125 59.125 C-10.529375 59.08375 -11.74625 59.0425 -13 59 C-12.67 57.68 -12.34 56.36 -12 55 C-12.66 55 -13.32 55 -14 55 C-14.1462338 49.66539114 -13.80065485 45.20166201 -12.4375 40 C-12.26766602 39.34644531 -12.09783203 38.69289063 -11.92285156 38.01953125 C-9.17131418 27.61957239 -6.06343858 17.31133795 -3 7 C-5.97 7.66 -8.94 8.32 -12 9 C-12 7.68 -12 6.36 -12 5 C-10.82630859 4.58427734 -10.82630859 4.58427734 -9.62890625 4.16015625 C-8.61699219 3.79792969 -7.60507812 3.43570313 -6.5625 3.0625 C-5.55316406 2.70285156 -4.54382813 2.34320313 -3.50390625 1.97265625 C-1.09686255 1.23122361 -1.09686255 1.23122361 0 0 Z M3 7 C-2.67186077 23.1719417 -7.61778716 39.19091208 -11 56 C3.76884635 51.41803468 19.09149925 39.47416041 26.71875 25.953125 C28.54337319 21.74759107 28.57922512 19.56139786 28 15 C24.50122557 9.92113389 19.83665402 8.19535616 14 7 C12.06651031 6.9222084 10.13016906 6.89814044 8.1953125 6.92578125 C7.21836426 6.93649658 6.24141602 6.94721191 5.23486328 6.95825195 C4.4973584 6.97202881 3.75985352 6.98580566 3 7 Z " fill="#1A1915" transform="translate(793,222)"/>
<path d="M0 0 C1.98 0 3.96 0 6 0 C5.40188386 3.92555163 4.17492843 6.83372004 2.28515625 10.3125 C-1.46649783 17.63891728 -4.02084154 25.19497929 -6.5625 33 C-7.04619875 34.46110861 -7.52992293 35.92220879 -8.01367188 37.38330078 C-10.92591899 46.26000771 -13.56567601 55.15579057 -15.51782227 64.30078125 C-16.94722501 70.79714532 -16.94722501 70.79714532 -20 73 C-21.298849 68.53574415 -20.58449939 64.86036545 -19.5625 60.4375 C-18.69264707 56.55165046 -18 53.01692244 -18 49 C-18.72703125 49.68835938 -18.72703125 49.68835938 -19.46875 50.390625 C-24.63536441 55.12006435 -29.7397153 59.44431069 -36.875 60.375 C-39 60 -39 60 -41 58 C-41.77183923 53.2724847 -40.97547197 50.4743608 -38.4375 46.5625 C-37.31783296 45.02230074 -36.17119001 43.50139336 -35 42 C-34.43539063 41.27039063 -33.87078125 40.54078125 -33.2890625 39.7890625 C-28.95193304 34.50993207 -24.8217519 30.44097137 -17.75 29.625 C-15 30 -15 30 -12 32 C-11.74307373 31.24380371 -11.48614746 30.48760742 -11.22143555 29.70849609 C-10.0478474 26.26248417 -8.86774001 22.81873907 -7.6875 19.375 C-7.28337891 18.18519531 -6.87925781 16.99539062 -6.46289062 15.76953125 C-5.86831055 14.03896484 -5.86831055 14.03896484 -5.26171875 12.2734375 C-4.90037842 11.21560059 -4.53903809 10.15776367 -4.16674805 9.06787109 C-2.97085409 5.92336316 -1.55349786 2.98193425 0 0 Z M-27.515625 41.3984375 C-30.90596969 44.94870411 -33.5378549 48.76631147 -36 53 C-35.67 53.66 -35.34 54.32 -35 55 C-29.52487751 52.24861269 -24.44500645 49.05258815 -19.5 45.4375 C-18.4790625 44.69371094 -17.458125 43.94992187 -16.40625 43.18359375 C-14.02119588 41.01923457 -13.28508204 40.14302949 -13 37 C-19.5715275 32.61898167 -22.64139141 36.85588253 -27.515625 41.3984375 Z " fill="#191815" transform="translate(408,214)"/>
<path d="M0 0 C2.67312863 2.60793037 3.83423351 4.43224235 4.23046875 8.1796875 C4.24774231 10.12123522 4.13358783 12.06297645 4 14 C3.01 14 2.02 14 1 14 C-0.32 11.36 -1.64 8.72 -3 6 C-8.64323958 7.36805808 -11.88822683 11.35014215 -15 16 C-16.96833028 20.24146762 -18.530544 24.5641141 -20 29 C-20.37511719 30.12148437 -20.75023437 31.24296875 -21.13671875 32.3984375 C-21.42160156 33.25695312 -21.70648437 34.11546875 -22 35 C-20.64455078 35.09087891 -20.64455078 35.09087891 -19.26171875 35.18359375 C-18.08222656 35.26738281 -16.90273438 35.35117188 -15.6875 35.4375 C-14.51574219 35.51871094 -13.34398437 35.59992188 -12.13671875 35.68359375 C-9 36 -9 36 -6 37 C-6.33 37.99 -6.66 38.98 -7 40 C-11.95 40.33 -16.9 40.66 -22 41 C-23.38179679 45.14539038 -24.2577192 47.83491123 -24.6328125 51.9609375 C-24.75849609 53.28544922 -24.75849609 53.28544922 -24.88671875 54.63671875 C-25.00466797 55.99216797 -25.00466797 55.99216797 -25.125 57.375 C-25.21136719 58.30183594 -25.29773438 59.22867188 -25.38671875 60.18359375 C-25.59748885 62.45522701 -25.80173181 64.72724727 -26 67 C-27.485 67.495 -27.485 67.495 -29 68 C-31.60852756 59.61544714 -30.18224222 49.57125613 -29 41 C-30.19625 41.185625 -31.3925 41.37125 -32.625 41.5625 C-36.28283707 42.0311197 -39.37862166 41.81481013 -43 41 C-43.33 39.68 -43.66 38.36 -44 37 C-41.0384304 35.5192152 -38.16493705 35.64685963 -34.875 35.4375 C-33.59367188 35.35371094 -32.31234375 35.26992187 -30.9921875 35.18359375 C-30.00476563 35.12300781 -29.01734375 35.06242187 -28 35 C-27.69707031 33.88882813 -27.39414062 32.77765625 -27.08203125 31.6328125 C-20.62453658 8.48890174 -20.62453658 8.48890174 -11.8125 1.1875 C-7.82562879 -0.49584562 -4.25108676 -0.95966697 0 0 Z " fill="#1A1915" transform="translate(895,214)"/>
<path d="M0 0 C2.67312863 2.60793037 3.83423351 4.43224235 4.23046875 8.1796875 C4.24774231 10.12123522 4.13358783 12.06297645 4 14 C3.01 14 2.02 14 1 14 C-0.32 11.36 -1.64 8.72 -3 6 C-8.63001014 7.36485094 -11.80508568 11.43583669 -15 16 C-17.9313844 21.71800907 -19.61149893 27.75174518 -21 34 C-16.05 34.99 -11.1 35.98 -6 37 C-6.33 37.99 -6.66 38.98 -7 40 C-11.95 40.33 -16.9 40.66 -22 41 C-23.69204598 46.07613794 -24.2887974 49.30441613 -24.5 54.5 C-24.69911182 59.39815068 -25.24364208 63.41080672 -27 68 C-27.66 68 -28.32 68 -29 68 C-31.02992693 59.15531837 -30.10632188 49.929598 -29 41 C-30.19625 41.20625 -31.3925 41.4125 -32.625 41.625 C-36.5576018 42.13581838 -39.3121243 41.56734717 -43 40 C-42.67 38.68 -42.34 37.36 -42 36 C-37.38 35.67 -32.76 35.34 -28 35 C-27.63648438 33.66066406 -27.27296875 32.32132813 -26.8984375 30.94140625 C-21.65048292 12.17577907 -21.65048292 12.17577907 -16 6 C-15.46632813 5.38769531 -14.93265625 4.77539062 -14.3828125 4.14453125 C-10.18683003 -0.08045571 -5.88024617 -1.68007034 0 0 Z " fill="#1A1915" transform="translate(571,214)"/>
<path d="M0 0 C3.27298517 2.68552629 4.20550975 5.12362627 4.8125 9.1875 C5 13 5 13 4 15 C3.01 14.67 2.02 14.34 1 14 C-0.03485877 11.68191636 -1.0355414 9.34824702 -2 7 C-2.66 6.67 -3.32 6.34 -4 6 C-13.64181316 11.50960752 -16.67354601 19.03836301 -19.52758789 29.36010742 C-20.03004578 31.23699049 -20.51669249 33.11809463 -21 35 C-19.62714844 35.09087891 -19.62714844 35.09087891 -18.2265625 35.18359375 C-17.03804687 35.26738281 -15.84953125 35.35117188 -14.625 35.4375 C-13.44164062 35.51871094 -12.25828125 35.59992188 -11.0390625 35.68359375 C-8 36 -8 36 -6 37 C-6.33 37.99 -6.66 38.98 -7 40 C-14.92 40.495 -14.92 40.495 -23 41 C-23.13277344 42.61390625 -23.26554688 44.2278125 -23.40234375 45.890625 C-23.58055754 48.0104311 -23.75895239 50.13022199 -23.9375 52.25 C-24.02451172 53.31347656 -24.11152344 54.37695312 -24.20117188 55.47265625 C-24.28818359 56.49746094 -24.37519531 57.52226562 -24.46484375 58.578125 C-24.543396 59.52075195 -24.62194824 60.46337891 -24.70288086 61.43457031 C-24.96612311 63.70749522 -25.38231108 65.80075595 -26 68 C-27.485 67.505 -27.485 67.505 -29 67 C-29 58.75 -29 50.5 -29 42 C-31.64 42 -34.28 42 -37 42 C-40.5 41 -40.5 41 -43 40 C-42.67 38.68 -42.34 37.36 -42 36 C-37.38 35.67 -32.76 35.34 -28 35 C-27.63648438 33.74445313 -27.27296875 32.48890625 -26.8984375 31.1953125 C-20.02361619 8.06209323 -20.02361619 8.06209323 -10 1 C-6.78005932 -0.60997034 -3.48260164 -0.59307672 0 0 Z " fill="#1A1915" transform="translate(933,214)"/>
<path d="M0 0 C0.66 0.33 1.32 0.66 2 1 C2.18212752 4.66914424 1.74851522 7.09698822 0.234375 10.4296875 C-2.45450647 16.81993051 -4.07496812 23.41049453 -5.75 30.125 C-6.06582031 31.36765625 -6.38164063 32.6103125 -6.70703125 33.890625 C-7.47744795 36.92559986 -8.24161894 39.96199963 -9 43 C-5.97369676 41.53253365 -3.39817576 39.86828555 -0.6875 37.875 C3.33203515 35.16214542 6.05925236 34.09251574 11 35 C13.70515089 39.05772633 13.6394489 42.23692547 13 47 C9.97505914 53.30196013 3.57314869 59.37583599 -3 62 C-5.140625 62.1953125 -5.140625 62.1953125 -7.25 62.125 C-8.4875 62.08375 -9.725 62.0425 -11 62 C-11 61.01 -11 60.02 -11 59 C-10.20335937 58.64808594 -9.40671875 58.29617188 -8.5859375 57.93359375 C-2.21536128 54.96530824 3.45516282 52.31291721 7 46 C7.95167379 42.73860648 7.95167379 42.73860648 8 40 C1.6523972 42.7036086 -2.79233443 46.24330507 -7.80078125 50.9765625 C-10 53 -10 53 -13 55 C-15.1875 54.625 -15.1875 54.625 -17 54 C-16.44024012 48.52408812 -15.41279637 43.50418217 -13.75 38.25 C-11.48505435 30.88375082 -9.57439308 23.46948763 -7.87597656 15.95214844 C-6.58082928 10.48845481 -4.78023747 5.89431902 -2 1 C-1.34 0.67 -0.68 0.34 0 0 Z " fill="#1A1915" transform="translate(607,213)"/>
<path d="M0 0 C0 1.65 0 3.3 0 5 C-0.87011719 5.25523437 -0.87011719 5.25523437 -1.7578125 5.515625 C-7.974135 7.44412109 -13.25502934 9.38254401 -17 15 C-11.58586368 14.50366307 -11.58586368 14.50366307 -6.4375 12.9375 C-3.14877943 11.67260747 -0.48801084 11.67094237 3 12 C6.16100551 16.74150826 5.63222984 21.45332374 5 27 C1.15788938 40.1093474 -6.45773198 52.16640048 -17.71875 59.8984375 C-20.35687087 61.17232463 -22.10465069 61.28755182 -25 61 C-26 60 -26 60 -26.0625 56.9375 C-26.041875 55.968125 -26.02125 54.99875 -26 54 C-25.195625 54.33 -24.39125 54.66 -23.5625 55 C-18.60823504 55 -16.80075164 53.06955817 -13.3125 49.7109375 C-6.46038564 41.67822235 -0.51064751 31.14906521 0.25 20.5 C0.27264405 18.06156479 0.27264405 18.06156479 -1 17 C-1.76183594 17.28875 -2.52367187 17.5775 -3.30859375 17.875 C-9.817184 20.21516728 -15.07867786 21.66980537 -22 21 C-22.66 20.34 -23.32 19.68 -24 19 C-23.91082537 14.36291903 -23.05045284 10.95842253 -19.8515625 7.48828125 C-14.03063469 2.80943421 -7.52873481 -0.47124719 0 0 Z " fill="#1A1915" transform="translate(744,248)"/>
<path d="M0 0 C1.32 0.33 2.64 0.66 4 1 C3.31867798 4.78203244 2.30398241 8.3442406 1.125 12 C-0.94054244 18.59616654 -2.54101124 25.24665053 -4 32 C-3.36191406 32.10957031 -2.72382812 32.21914062 -2.06640625 32.33203125 C-1.24011719 32.49058594 -0.41382813 32.64914063 0.4375 32.8125 C1.26121094 32.96332031 2.08492187 33.11414063 2.93359375 33.26953125 C3.61550781 33.51058594 4.29742188 33.75164062 5 34 C5.33 34.99 5.66 35.98 6 37 C0.555 37.495 0.555 37.495 -5 38 C-7.11854583 46.15640145 -8.95247481 54.33230955 -10.64160156 62.5871582 C-10.80370117 63.37437256 -10.96580078 64.16158691 -11.1328125 64.97265625 C-11.27605957 65.67656494 -11.41930664 66.38047363 -11.56689453 67.10571289 C-12 69 -12 69 -13 72 C-13.66 72 -14.32 72 -15 72 C-15.91468005 46.8293601 -15.91468005 46.8293601 -11 37 C-12.37285156 36.90912109 -12.37285156 36.90912109 -13.7734375 36.81640625 C-14.96195313 36.73261719 -16.15046875 36.64882812 -17.375 36.5625 C-18.55835938 36.48128906 -19.74171875 36.40007812 -20.9609375 36.31640625 C-24 36 -24 36 -26 35 C-25.67 33.35 -25.34 31.7 -25 30 C-20.05 30 -15.1 30 -10 30 C-9.61328125 28.25332031 -9.2265625 26.50664062 -8.828125 24.70703125 C-8.30279041 22.40869243 -7.77670965 20.11052408 -7.25 17.8125 C-6.99734375 16.66201172 -6.7446875 15.51152344 -6.484375 14.32617188 C-6.2265625 13.21435547 -5.96875 12.10253906 -5.703125 10.95703125 C-5.35749512 9.42526245 -5.35749512 9.42526245 -5.00488281 7.86254883 C-3.86654272 4.61982834 -2.2716695 2.55255282 0 0 Z " fill="#1A1915" transform="translate(1096,214)"/>
<path d="M0 0 C1.67542976 0.28604898 3.34385343 0.61781233 5 1 C4.5166927 4.09316669 3.73252116 6.689501 2.59375 9.625 C0.92606395 14.00662566 -0.16975889 18.4300652 -1.1875 23 C-1.36474609 23.77472656 -1.54199219 24.54945313 -1.72460938 25.34765625 C-2.1546759 27.23065021 -2.578055 29.11516954 -3 31 C1.95 32.98 1.95 32.98 7 35 C7 35.66 7 36.32 7 37 C3.04 37 -0.92 37 -5 37 C-5.32613281 38.94003906 -5.65226562 40.88007813 -5.98828125 42.87890625 C-6.31537517 44.77883478 -6.64253338 46.67875281 -6.97143555 48.57836914 C-7.30664409 50.52843344 -7.63289508 52.4800307 -7.95898438 54.43164062 C-9.04558683 60.67555025 -10.0976534 66.33999857 -13 72 C-13.33 72 -13.66 72 -14 72 C-14.39624358 60.27412521 -13.4139065 49.48042438 -11 38 C-14.25632326 36.37183837 -17.86842662 36.71159951 -21.46875 36.57421875 C-24 36 -24 36 -25.34375 33.95703125 C-25.5603125 33.31121094 -25.776875 32.66539062 -26 32 C-25.34 31.34 -24.68 30.68 -24 30 C-21.40730017 30.01747888 -18.9474846 30.13768592 -16.375 30.375 C-15.66859375 30.43171875 -14.9621875 30.4884375 -14.234375 30.546875 C-12.48878639 30.68840921 -10.74426327 30.84297387 -9 31 C-8.89977539 30.44650879 -8.79955078 29.89301758 -8.69628906 29.32275391 C-4.05888351 4.05888351 -4.05888351 4.05888351 0 0 Z " fill="#1A1915" transform="translate(139,214)"/>
<path d="M0 0 C1.32 0.33 2.64 0.66 4 1 C3.27097631 6.11954838 1.97487941 10.9756423 0.5625 15.9375 C0.34529297 16.71029297 0.12808594 17.48308594 -0.09570312 18.27929688 C-1.38414563 22.85655657 -2.69125149 27.42851101 -4 32 C-3.36191406 32.10957031 -2.72382813 32.21914062 -2.06640625 32.33203125 C-1.24011719 32.49058594 -0.41382813 32.64914063 0.4375 32.8125 C1.26121094 32.96332031 2.08492187 33.11414063 2.93359375 33.26953125 C3.61550781 33.51058594 4.29742187 33.75164062 5 34 C5.33 34.99 5.66 35.98 6 37 C0.555 37.495 0.555 37.495 -5 38 C-5.16604736 38.8878418 -5.33209473 39.77568359 -5.50317383 40.69042969 C-6.12643214 43.99458507 -6.75929134 47.29660034 -7.39868164 50.59765625 C-7.67304227 52.02465526 -7.94359494 53.45239203 -8.21020508 54.88085938 C-8.59489591 56.93827478 -8.99336523 58.9926167 -9.39453125 61.046875 C-9.63018799 62.28276367 -9.86584473 63.51865234 -10.10864258 64.79199219 C-10.97016254 67.89261458 -11.87761267 69.62624323 -14 72 C-15.64879325 70.35120675 -15.17123914 68.46821842 -15.1875 66.19921875 C-15.13065342 59.92477743 -14.16788846 53.96364224 -13 47.8125 C-12.80921875 46.76513672 -12.6184375 45.71777344 -12.421875 44.63867188 C-11.95649786 42.09073203 -11.4824538 39.54475133 -11 37 C-11.91523438 36.95101562 -12.83046875 36.90203125 -13.7734375 36.8515625 C-14.96195313 36.77679688 -16.15046875 36.70203125 -17.375 36.625 C-18.55835938 36.55539063 -19.74171875 36.48578125 -20.9609375 36.4140625 C-24 36 -24 36 -26 34 C-26 33.01 -26 32.02 -26 31 C-20.1314592 29.85180723 -14.9114744 30.22686955 -9 31 C-8.88398438 29.88109375 -8.76796875 28.7621875 -8.6484375 27.609375 C-8.03364557 22.71261124 -6.88210132 18.01650917 -5.625 13.25 C-5.41617188 12.41339844 -5.20734375 11.57679688 -4.9921875 10.71484375 C-3.9083605 6.57118808 -3.0100671 3.20369715 0 0 Z " fill="#1A1915" transform="translate(239,214)"/>
<path d="M0 0 C1.65 0.33 3.3 0.66 5 1 C4.31124576 6.59268446 2.5241882 11.64351637 0.6875 16.9375 C-3.00463987 27.798403 -6.52593985 38.58325962 -8 50 C-7.13117188 49.4946875 -6.26234375 48.989375 -5.3671875 48.46875 C-4.20350241 47.811831 -3.03941845 47.15561821 -1.875 46.5 C-0.16957031 45.52546875 -0.16957031 45.52546875 1.5703125 44.53125 C5.09867842 42.95594312 7.1926162 42.51713937 11 43 C14.47974554 46.85257542 15.08016278 52.032879 16 57 C14.68 57.66 13.36 58.32 12 59 C10.35 55.7 8.7 52.4 7 49 C5.84371094 49.63228516 5.84371094 49.63228516 4.6640625 50.27734375 C3.66117187 50.82519531 2.65828125 51.37304688 1.625 51.9375 C0.62726563 52.48277344 -0.37046875 53.02804687 -1.3984375 53.58984375 C-5.31900502 55.71495617 -7.48905536 56.19195509 -12 56 C-13.68087338 54.31912662 -13.28506976 52.36193496 -13.36328125 50.046875 C-13.28754465 41.37439191 -10.67594157 33.47814797 -8.1875 25.25 C-7.72971246 23.68660932 -7.2733235 22.12280841 -6.81835938 20.55859375 C-4.77442548 13.59809814 -2.60408567 6.77468794 0 0 Z " fill="#1A1915" transform="translate(265,214)"/>
<path d="M0 0 C2.47155943 3.70733915 2.65621517 6.70094937 2 11 C-0.38172659 15.46573736 -3.34769503 16.91229779 -7.9609375 18.44140625 C-10.61893177 19.1695541 -13.2665775 19.65832219 -16 20 C-15.80811844 21.939509 -15.80811844 21.939509 -15 24 C-13.16016576 25.34231442 -13.16016576 25.34231442 -10.9375 26.25 C-9.83728516 26.75273437 -9.83728516 26.75273437 -8.71484375 27.265625 C-7.86599609 27.62914062 -7.86599609 27.62914062 -7 28 C-7.33 28.99 -7.66 29.98 -8 31 C-10.91916538 31.34751969 -13.13195476 31.53280018 -15.69921875 29.95703125 C-20.80230724 25.7435853 -20.80230724 25.7435853 -21.23828125 21.8984375 C-21.44265593 14.94969841 -20.40979609 9.67136949 -15.57421875 4.46484375 C-10.58844139 0.0459248 -6.53201149 -1.88702554 0 0 Z M-8.140625 6.36328125 C-8.83671875 7.00652344 -9.5328125 7.64976562 -10.25 8.3125 C-11.30960938 9.26576172 -11.30960938 9.26576172 -12.390625 10.23828125 C-14.22482114 11.84841007 -14.22482114 11.84841007 -14 14 C-9.64980938 13.49416388 -6.50031113 12.70024001 -3 10 C-2.12177688 7.91466367 -2.12177688 7.91466367 -2 6 C-4.75034686 4.87880004 -5.57360157 4.72844333 -8.140625 6.36328125 Z " fill="#1A1915" transform="translate(953,243)"/>
<path d="M0 0 C2.63326457 2.63326457 2.71180635 4.32553101 3 8 C1.93804609 12.05473313 0.14441209 14.28314136 -3 17 C-5.7265625 18.046875 -5.7265625 18.046875 -8.625 18.75 C-9.58664062 18.99234375 -10.54828125 19.2346875 -11.5390625 19.484375 C-14 20 -14 20 -16 20 C-13.80528594 24.51135667 -11.58826282 26.06273348 -7 28 C-7.33 28.99 -7.66 29.98 -8 31 C-15.33576642 30.51094891 -15.33576642 30.51094891 -18.4375 28.125 C-21.39382707 24.10439518 -21.70639825 19.82299496 -21 15 C-18.60126806 7.92212727 -15.45767436 3.70718343 -9 0 C-5.47955362 -1.17348213 -3.57539179 -0.83679382 0 0 Z M-9.625 7.8125 C-10.54152344 8.59560547 -10.54152344 8.59560547 -11.4765625 9.39453125 C-13.24613524 11.03237465 -13.24613524 11.03237465 -14 14 C-12.55989519 13.74337755 -11.1229313 13.46909179 -9.6875 13.1875 C-8.88699219 13.03667969 -8.08648438 12.88585937 -7.26171875 12.73046875 C-4.73550086 11.91457454 -3.59837845 11.10312954 -2 9 C-2.22757731 6.83700789 -2.22757731 6.83700789 -3 5 C-6.52232517 5 -7.05751328 5.56731481 -9.625 7.8125 Z " fill="#1A1915" transform="translate(1026,243)"/>
<path d="M0 0 C2.47035712 2.47035712 2.35042281 3.3960007 2.4375 6.8125 C2.33368165 10.41499666 2.12450521 11.7982157 0.1875 14.9375 C-4.51850083 17.98255936 -10.32248679 20 -16 20 C-13.80528594 24.51135667 -11.58826282 26.06273348 -7 28 C-7.33 28.99 -7.66 29.98 -8 31 C-15.33576642 30.51094891 -15.33576642 30.51094891 -18.4375 28.125 C-21.39382707 24.10439518 -21.70639825 19.82299496 -21 15 C-18.60126806 7.92212727 -15.45767436 3.70718343 -9 0 C-5.47955362 -1.17348213 -3.57539179 -0.83679382 0 0 Z M-9.625 7.8125 C-10.54152344 8.59560547 -10.54152344 8.59560547 -11.4765625 9.39453125 C-13.24613524 11.03237465 -13.24613524 11.03237465 -14 14 C-7.93987474 13.16295167 -7.93987474 13.16295167 -2.875 10.0625 C-1.67608107 7.86905405 -1.67608107 7.86905405 -3 5 C-6.52232517 5 -7.05751328 5.56731481 -9.625 7.8125 Z " fill="#1A1915" transform="translate(431,243)"/>
<path d="M0 0 C2.47092759 2.22383483 2.93751126 3.58935968 3.4375 6.875 C2.88220403 10.84139978 2.14708337 13.49359803 -1 16 C-5.67504736 17.91493722 -10.89022014 20 -16 20 C-13.80528594 24.51135667 -11.58826282 26.06273348 -7 28 C-7 28.99 -7 29.98 -7 31 C-10.83428028 31.36516955 -12.78812732 31.11001082 -16.25 29.3125 C-19.24631661 26.79287012 -20.23923077 25.80384614 -21 22 C-21.08053817 15.89060454 -19.84314336 10.80679722 -16 6 C-10.99522525 0.94962366 -7.35431438 -1.99179348 0 0 Z M-12 10 C-12.94436349 12.16531168 -12.94436349 12.16531168 -13 14 C-8.18018197 13.55164483 -5.40366576 12.50377357 -2 9 C-2 7.68 -2 6.36 -2 5 C-7.11325911 5 -8.41601516 6.49565926 -12 10 Z " fill="#1A1915" transform="translate(315,243)"/>
<path d="M0 0 C2.47967477 3.65130104 2.21084582 6.66768189 1.58203125 10.8828125 C1 13 1 13 -0.875 15.375 C-5.69507656 17.88143981 -11.49975421 20 -17 20 C-14.80528594 24.51135667 -12.58826282 26.06273348 -8 28 C-8 28.99 -8 29.98 -8 31 C-12.6613779 31.32521241 -15.24064446 30.81951666 -19 28 C-21.66669734 23.999954 -22.46783931 20.59604951 -21.6015625 15.7890625 C-19.58305005 8.83113134 -16.03388697 4.06562517 -10.0625 0 C-6.23252113 -1.25060535 -3.85958494 -1.11334181 0 0 Z M-12 9 C-13.41190564 11.60437233 -13.41190564 11.60437233 -14 14 C-8.65821762 13.39284753 -8.65821762 13.39284753 -4 11 C-3.18415432 7.94091587 -3.18415432 7.94091587 -3 5 C-7.10202215 5 -8.81306402 6.4911355 -12 9 Z " fill="#1A1915" transform="translate(653,243)"/>
<path d="M0 0 C0.825 0.309375 1.65 0.61875 2.5 0.9375 C2.83 2.2575 3.16 3.5775 3.5 4.9375 C3.83 4.2775 4.16 3.6175 4.5 2.9375 C6.15 2.9375 7.8 2.9375 9.5 2.9375 C9.48839844 3.80632812 9.47679687 4.67515625 9.46484375 5.5703125 C9.45582031 6.72273437 9.44679688 7.87515625 9.4375 9.0625 C9.42589844 10.19945312 9.41429687 11.33640625 9.40234375 12.5078125 C9.494673 15.7504156 9.88610094 18.75682612 10.5 21.9375 C8.75 21.8125 8.75 21.8125 6.5 20.9375 C4.25 17.875 4.25 17.875 2.5 14.9375 C1.83613281 15.50339844 1.17226563 16.06929688 0.48828125 16.65234375 C-0.39472656 17.38582031 -1.27773438 18.11929687 -2.1875 18.875 C-3.05761719 19.60589844 -3.92773438 20.33679688 -4.82421875 21.08984375 C-7.55645744 22.97648448 -9.20152754 23.76792679 -12.5 23.9375 C-13.49 23.2775 -14.48 22.6175 -15.5 21.9375 C-16.32833614 16.02081331 -14.83855716 11.72152185 -11.5 6.9375 C-5.34454194 -0.09543825 -5.34454194 -0.09543825 0 0 Z M-7.5 10.9375 C-8.16 11.9275 -8.82 12.9175 -9.5 13.9375 C-9.17 14.9275 -8.84 15.9175 -8.5 16.9375 C-7.0344405 15.86396259 -5.57779848 14.7782446 -4.125 13.6875 C-2.90683594 12.78257812 -2.90683594 12.78257812 -1.6640625 11.859375 C0.46826778 9.96568096 1.44636704 8.55421482 2.5 5.9375 C-2.590851 5.21023557 -4.27255303 7.18668325 -7.5 10.9375 Z " fill="#191814" transform="translate(458.5,249.0625)"/>
<path d="M0 0 C2.85491219 2.85491219 3.34746566 5.90731611 3.75 9.8125 C3.6677534 13.24629545 3.26595542 14.66090684 1.125 17.390625 C-5.70462289 23.63613541 -5.70462289 23.63613541 -10 24 C-14.2587343 21.1608438 -14.78499157 17.81926162 -16 13 C-16.68987094 8.60207273 -16.32278406 7.46624364 -13.75 3.75 C-9.09037542 -0.90962458 -6.57784271 -1.7939571 0 0 Z " fill="#1B1A16" transform="translate(212,24)"/>
<path d="M0 0 C0 0.99 0 1.98 0 3 C-0.556875 3.13535156 -1.11375 3.27070313 -1.6875 3.41015625 C-14.60819959 7.05501576 -20.24135352 17.23879443 -27 28 C-28.32 27.67 -29.64 27.34 -31 27 C-31.29211698 18.13911833 -30.44796872 9.73952546 -29 1 C-27.0625 0.4375 -27.0625 0.4375 -25 0 C-24 1 -24 1 -23.875 4.1875 C-23.98602769 7.5738444 -24.40721572 10.67382151 -25 14 C-23.89591797 12.75283203 -23.89591797 12.75283203 -22.76953125 11.48046875 C-21.78418699 10.38251372 -20.79849123 9.28487407 -19.8125 8.1875 C-19.32974609 7.64029297 -18.84699219 7.09308594 -18.34960938 6.52929688 C-12.9807222 0.5838849 -7.89585353 -3.7285975 0 0 Z " fill="#1A1915" transform="translate(999,245)"/>
<path d="M0 0 C0.33 1.65 0.66 3.3 1 5 C0.22914063 5.25394531 -0.54171875 5.50789062 -1.3359375 5.76953125 C-2.84027344 6.28580078 -2.84027344 6.28580078 -4.375 6.8125 C-5.37273437 7.14894531 -6.37046875 7.48539063 -7.3984375 7.83203125 C-10.2845709 8.8506575 -10.2845709 8.8506575 -12 12 C-11.21753906 12.35191406 -10.43507812 12.70382813 -9.62890625 13.06640625 C-1.46223064 17.05091167 -1.46223064 17.05091167 -0.046875 19.95703125 C0.1875 21.875 0.1875 21.875 0 25 C-12.80302672 33.61480255 -12.80302672 33.61480255 -18.234375 32.5703125 C-19.10835937 32.28800781 -19.10835937 32.28800781 -20 32 C-20 31.01 -20 30.02 -20 29 C-15.71 27.02 -11.42 25.04 -7 23 C-7 22.34 -7 21.68 -7 21 C-7.81404297 20.63648438 -7.81404297 20.63648438 -8.64453125 20.265625 C-16.19145178 16.7301307 -16.19145178 16.7301307 -18 13 C-18.625 10.625 -18.625 10.625 -18 8 C-13.16551706 2.3736621 -7.48331778 -0.44019516 0 0 Z " fill="#1A1915" transform="translate(187,241)"/>
<path d="M0 0 C0.99 0.33 1.98 0.66 3 1 C2.44683414 4.96435532 1.54379132 8.3162378 0 12 C1.04800781 11.15115234 1.04800781 11.15115234 2.1171875 10.28515625 C3.02726563 9.55167969 3.93734375 8.81820313 4.875 8.0625 C5.77992188 7.33160156 6.68484375 6.60070312 7.6171875 5.84765625 C11.27924977 3.00805714 13.37085634 2.71067852 18 3 C20 5 20 5 20.1953125 8.0390625 C20.17210937 9.22242188 20.14890625 10.40578125 20.125 11.625 C20.10695313 12.81351562 20.08890625 14.00203125 20.0703125 15.2265625 C20.04710937 16.14179688 20.02390625 17.05703125 20 18 C18.68 18 17.36 18 16 18 C15.505 13.05 15.505 13.05 15 8 C9.76346656 11.25514241 5.28267158 15.16624053 0.68359375 19.26953125 C-2 21 -2 21 -4.83984375 20.76171875 C-5.55269531 20.51035156 -6.26554688 20.25898438 -7 20 C-7.61235517 12.80482679 -5.29020105 7.35350869 -1.25 1.4375 C-0.8375 0.963125 -0.425 0.48875 0 0 Z " fill="#1A1915" transform="translate(690,249)"/>
<path d="M0 0 C1.21386936 3.64160808 0.6674695 4.33165469 -0.9375 7.6875 C-1.31777344 8.49574219 -1.69804688 9.30398438 -2.08984375 10.13671875 C-2.39019531 10.75160156 -2.69054688 11.36648438 -3 12 C-2.48050781 11.60167969 -1.96101563 11.20335937 -1.42578125 10.79296875 C9.74669811 2.30518868 9.74669811 2.30518868 16 3 C18 5 18 5 18.1953125 8.0390625 C18.17210937 9.22242188 18.14890625 10.40578125 18.125 11.625 C18.10695313 12.81351562 18.08890625 14.00203125 18.0703125 15.2265625 C18.04710937 16.14179688 18.02390625 17.05703125 18 18 C16.68 18 15.36 18 14 18 C13.505 13.05 13.505 13.05 13 8 C7.67796317 11.45535227 2.76014923 15.30390094 -2.1953125 19.26953125 C-5 21 -5 21 -7.3671875 20.76171875 C-7.90601563 20.51035156 -8.44484375 20.25898438 -9 20 C-9.5505289 13.66891769 -7.93833411 8.62116091 -5 3 C-2.47608696 0 -2.47608696 0 0 0 Z " fill="#1A1915" transform="translate(1046,249)"/>
<path d="M0 0 C2.03125 0.640625 2.03125 0.640625 4.15625 2.328125 C5.37931423 5.56050904 5.03938953 7.34736919 4.03125 10.640625 C1.02517482 15.86858183 -4.45842902 19.38215754 -9.96875 21.640625 C-12.78515625 21.3046875 -12.78515625 21.3046875 -14.96875 20.640625 C-16.60091851 14.24796502 -15.26337617 10.28254075 -11.96875 4.640625 C-8.43196307 -0.41192776 -5.81581385 -1.04684649 0 0 Z M-4.96875 4.640625 C-8.71818029 8.39005529 -10.60682813 11.44055966 -11.96875 16.640625 C-7.68747287 16.15175945 -5.87672457 15.02636344 -3.09375 11.765625 C-2.47757813 11.06695312 -1.86140625 10.36828125 -1.2265625 9.6484375 C-0.81148437 8.98585938 -0.39640625 8.32328125 0.03125 7.640625 C-0.29875 6.650625 -0.62875 5.660625 -0.96875 4.640625 C-2.28875 4.640625 -3.60875 4.640625 -4.96875 4.640625 Z " fill="#191815" transform="translate(514.96875,248.359375)"/>
<path d="M0 0 C2.4375 1.5625 2.4375 1.5625 4 4 C3.9375 7.625 3.9375 7.625 3 11 C0 13 0 13 -3.5625 12.8125 C-7 12 -7 12 -9 9 C-9.32502803 5.87973093 -9.51151479 3.85252465 -7.875 1.125 C-5.07553259 -0.55468045 -3.20195936 -0.45742277 0 0 Z " fill="#E8661D" transform="translate(912,183)"/>
<path d="M0 0 C3.5 0.4375 3.5 0.4375 5.4375 1.5625 C6.98724515 4.29734439 6.82162076 6.3499407 6.5 9.4375 C4.5 12.4375 4.5 12.4375 2.1875 13.3125 C-1.37700054 13.47829072 -2.80604621 12.75729354 -5.5 10.4375 C-6.64121708 7.08517483 -6.88081215 5.34192884 -5.5 2.0625 C-3.5 0.4375 -3.5 0.4375 0 0 Z " fill="#E9671D" transform="translate(966.5,177.5625)"/>
<path d="M0 0 C1.65 0.33 3.3 0.66 5 1 C4.66508961 7.25166062 3.34788805 12.27512744 -1 17 C-1.99 17 -2.98 17 -4 17 C-3.27246734 13.19281452 -2.38723428 9.44514431 -1.4375 5.6875 C-1.16808594 4.61886719 -0.89867187 3.55023438 -0.62109375 2.44921875 C-0.41613281 1.64097656 -0.21117187 0.83273438 0 0 Z " fill="#1A1915" transform="translate(161,224)"/>
<path d="M0 0 C1.32 0.33 2.64 0.66 4 1 C3.40984815 6.50808397 2.43336231 11.64878069 1 17 C-0.32 17 -1.64 17 -3 17 C-2.88597936 14.72858891 -2.75841495 12.45785448 -2.625 10.1875 C-2.55539062 8.92292969 -2.48578125 7.65835937 -2.4140625 6.35546875 C-2 3 -2 3 0 0 Z " fill="#191814" transform="translate(668,251)"/>
<path d="M0 0 C2.0625 0.4375 2.0625 0.4375 4 1 C3.68954268 2.9169986 3.37655329 4.83358723 3.0625 6.75 C2.88847656 7.81734375 2.71445313 8.8846875 2.53515625 9.984375 C2.11295829 12.36347593 1.62797116 14.66915211 1 17 C-0.32 17 -1.64 17 -3 17 C-3.20658471 11.21562809 -2.65660398 6.5544957 -1 1 C-0.67 0.67 -0.34 0.34 0 0 Z " fill="#1A1915" transform="translate(103,251)"/>
<path d="M0 0 C1.32 0 2.64 0 4 0 C4.2396943 5.63281599 3.38529821 10.54538831 2 16 C0.68 16.33 -0.64 16.66 -2 17 C-3.48959804 14.02080393 -2.65011186 11.75137753 -2.125 8.5 C-1.94195313 7.3346875 -1.75890625 6.169375 -1.5703125 4.96875 C-1 2 -1 2 0 0 Z " fill="#191915" transform="translate(838,251)"/>
<path d="M0 0 C1.32 0.33 2.64 0.66 4 1 C3.40984815 6.50808397 2.43336231 11.64878069 1 17 C-0.32 16.67 -1.64 16.34 -3 16 C-2.88544319 14.08268082 -2.75793742 12.1661325 -2.625 10.25 C-2.55539062 9.18265625 -2.48578125 8.1153125 -2.4140625 7.015625 C-2.0271777 4.19793568 -1.44313834 2.4169634 0 0 Z " fill="#1B1A16" transform="translate(351,251)"/>
<path d="M0 0 C1.65 0.33 3.3 0.66 5 1 C5.33 2.32 5.66 3.64 6 5 C3.625 5.625 3.625 5.625 1 6 C0.34 5.34 -0.32 4.68 -1 4 C-0.625 1.875 -0.625 1.875 0 0 Z " fill="#191814" transform="translate(837,237)"/>
<path d="M0 0 C2.0625 0.4375 2.0625 0.4375 4 1 C4.33 2.32 4.66 3.64 5 5 C3.35 5.33 1.7 5.66 0 6 C-0.38218767 4.34385343 -0.71395102 2.67542976 -1 1 C-0.67 0.67 -0.34 0.34 0 0 Z " fill="#1A1915" transform="translate(667,237)"/>
<path d="M0 0 C2.0625 0.4375 2.0625 0.4375 4 1 C4.33 2.32 4.66 3.64 5 5 C3.35 5.33 1.7 5.66 0 6 C-0.38218767 4.34385343 -0.71395102 2.67542976 -1 1 C-0.67 0.67 -0.34 0.34 0 0 Z " fill="#1A1915" transform="translate(350,237)"/>
<path d="M0 0 C2.475 0.99 2.475 0.99 5 2 C4.67 3.32 4.34 4.64 4 6 C2.35 5.67 0.7 5.34 -1 5 C-0.67 3.35 -0.34 1.7 0 0 Z " fill="#1B1A16" transform="translate(102,237)"/>
</svg>
